<mxfile host="Electron" modified="2024-07-07T15:12:26.839Z" agent="Mozilla/5.0 (Macintosh; Intel Mac OS X 10_15_7) AppleWebKit/537.36 (KHTML, like Gecko) draw.io/24.2.5 Chrome/120.0.6099.109 Electron/28.1.0 Safari/537.36" etag="JPqrufCzYFXB0d4T0Bub" version="24.2.5" type="device">
  <diagram name="Page-1" id="t18pIuF3s-i3S2pNe8xw">
    <mxGraphModel dx="2095" dy="1173" grid="0" gridSize="10" guides="1" tooltips="1" connect="1" arrows="1" fold="1" page="0" pageScale="1" pageWidth="850" pageHeight="1100" math="0" shadow="0">
      <root>
        <mxCell id="0" />
        <mxCell id="1" parent="0" />
        <mxCell id="-uz453hQ5GVuuJa5of4W-50" value="3rd party Notification Integration" style="rounded=1;whiteSpace=wrap;html=1;sketch=1;hachureGap=4;jiggle=2;curveFitting=1;fontFamily=Architects Daughter;fontSource=https%3A%2F%2Ffonts.googleapis.com%2Fcss%3Ffamily%3DArchitects%2BDaughter;fontSize=24;verticalAlign=bottom;arcSize=5;fillColor=#f5f5f5;gradientColor=#b3b3b3;strokeColor=#666666;" vertex="1" parent="1">
          <mxGeometry x="231.88" y="980" width="598.75" height="330" as="geometry" />
        </mxCell>
        <mxCell id="-uz453hQ5GVuuJa5of4W-1" value="AWS" style="ellipse;shape=cloud;whiteSpace=wrap;html=1;sketch=1;hachureGap=4;jiggle=2;curveFitting=1;fontFamily=Architects Daughter;fontSource=https%3A%2F%2Ffonts.googleapis.com%2Fcss%3Ffamily%3DArchitects%2BDaughter;fontSize=20;fillColor=#f5f5f5;gradientColor=#b3b3b3;strokeColor=#666666;" vertex="1" parent="1">
          <mxGeometry x="386.87" y="200" width="160" height="110" as="geometry" />
        </mxCell>
        <mxCell id="-uz453hQ5GVuuJa5of4W-2" value="Azure" style="ellipse;shape=cloud;whiteSpace=wrap;html=1;sketch=1;hachureGap=4;jiggle=2;curveFitting=1;fontFamily=Architects Daughter;fontSource=https%3A%2F%2Ffonts.googleapis.com%2Fcss%3Ffamily%3DArchitects%2BDaughter;fontSize=20;fillColor=#f5f5f5;gradientColor=#b3b3b3;strokeColor=#666666;" vertex="1" parent="1">
          <mxGeometry x="451.25" y="130" width="160" height="110" as="geometry" />
        </mxCell>
        <mxCell id="-uz453hQ5GVuuJa5of4W-3" value="GCP" style="ellipse;shape=cloud;whiteSpace=wrap;html=1;sketch=1;hachureGap=4;jiggle=2;curveFitting=1;fontFamily=Architects Daughter;fontSource=https%3A%2F%2Ffonts.googleapis.com%2Fcss%3Ffamily%3DArchitects%2BDaughter;fontSize=20;fillColor=#f5f5f5;gradientColor=#b3b3b3;strokeColor=#666666;" vertex="1" parent="1">
          <mxGeometry x="581.25" y="150" width="160" height="110" as="geometry" />
        </mxCell>
        <mxCell id="-uz453hQ5GVuuJa5of4W-4" value="AliCloud" style="ellipse;shape=cloud;whiteSpace=wrap;html=1;sketch=1;hachureGap=4;jiggle=2;curveFitting=1;fontFamily=Architects Daughter;fontSource=https%3A%2F%2Ffonts.googleapis.com%2Fcss%3Ffamily%3DArchitects%2BDaughter;fontSize=20;fillColor=#f5f5f5;gradientColor=#b3b3b3;strokeColor=#666666;" vertex="1" parent="1">
          <mxGeometry x="481.25" y="200" width="160" height="110" as="geometry" />
        </mxCell>
        <mxCell id="-uz453hQ5GVuuJa5of4W-5" value="OCI" style="ellipse;shape=cloud;whiteSpace=wrap;html=1;sketch=1;hachureGap=4;jiggle=2;curveFitting=1;fontFamily=Architects Daughter;fontSource=https%3A%2F%2Ffonts.googleapis.com%2Fcss%3Ffamily%3DArchitects%2BDaughter;fontSize=20;fillColor=#f5f5f5;gradientColor=#b3b3b3;strokeColor=#666666;" vertex="1" parent="1">
          <mxGeometry x="591.25" y="220" width="160" height="110" as="geometry" />
        </mxCell>
        <mxCell id="-uz453hQ5GVuuJa5of4W-6" value="IBM Cloud&lt;div&gt;(LGA)&lt;/div&gt;" style="ellipse;shape=cloud;whiteSpace=wrap;html=1;sketch=1;hachureGap=4;jiggle=2;curveFitting=1;fontFamily=Architects Daughter;fontSource=https%3A%2F%2Ffonts.googleapis.com%2Fcss%3Ffamily%3DArchitects%2BDaughter;fontSize=20;fillColor=#f5f5f5;gradientColor=#b3b3b3;strokeColor=#666666;" vertex="1" parent="1">
          <mxGeometry x="691.25" y="175" width="160" height="110" as="geometry" />
        </mxCell>
        <mxCell id="-uz453hQ5GVuuJa5of4W-12" style="edgeStyle=orthogonalEdgeStyle;curved=1;rounded=0;hachureGap=4;orthogonalLoop=1;jettySize=auto;html=1;strokeColor=default;strokeWidth=3;align=center;verticalAlign=middle;fontFamily=Architects Daughter;fontSource=https%3A%2F%2Ffonts.googleapis.com%2Fcss%3Ffamily%3DArchitects%2BDaughter;fontSize=11;fontColor=default;labelBackgroundColor=default;endArrow=classic;flowAnimation=1;" edge="1" parent="1" source="-uz453hQ5GVuuJa5of4W-7" target="-uz453hQ5GVuuJa5of4W-10">
          <mxGeometry relative="1" as="geometry" />
        </mxCell>
        <mxCell id="-uz453hQ5GVuuJa5of4W-7" value="Prisma&lt;div&gt;Cloud&lt;/div&gt;" style="ellipse;shape=cloud;whiteSpace=wrap;html=1;sketch=1;hachureGap=4;jiggle=2;curveFitting=1;fontFamily=Architects Daughter;fontSource=https%3A%2F%2Ffonts.googleapis.com%2Fcss%3Ffamily%3DArchitects%2BDaughter;fontSize=28;fillColor=#dae8fc;gradientColor=#7ea6e0;strokeColor=#6c8ebf;" vertex="1" parent="1">
          <mxGeometry x="140.94" y="150" width="210" height="135" as="geometry" />
        </mxCell>
        <mxCell id="-uz453hQ5GVuuJa5of4W-8" style="edgeStyle=orthogonalEdgeStyle;rounded=0;hachureGap=4;orthogonalLoop=1;jettySize=auto;html=1;entryX=0.921;entryY=0.462;entryDx=0;entryDy=0;entryPerimeter=0;fontFamily=Architects Daughter;fontSource=https%3A%2F%2Ffonts.googleapis.com%2Fcss%3Ffamily%3DArchitects%2BDaughter;curved=1;flowAnimation=1;strokeWidth=3;" edge="1" parent="1" source="-uz453hQ5GVuuJa5of4W-2" target="-uz453hQ5GVuuJa5of4W-7">
          <mxGeometry relative="1" as="geometry" />
        </mxCell>
        <mxCell id="-uz453hQ5GVuuJa5of4W-42" style="edgeStyle=orthogonalEdgeStyle;curved=1;rounded=0;hachureGap=4;orthogonalLoop=1;jettySize=auto;html=1;strokeColor=default;strokeWidth=3;align=center;verticalAlign=middle;fontFamily=Architects Daughter;fontSource=https%3A%2F%2Ffonts.googleapis.com%2Fcss%3Ffamily%3DArchitects%2BDaughter;fontSize=11;fontColor=default;labelBackgroundColor=default;endArrow=classic;flowAnimation=1;" edge="1" parent="1" source="-uz453hQ5GVuuJa5of4W-10">
          <mxGeometry relative="1" as="geometry">
            <mxPoint x="350" y="550" as="targetPoint" />
          </mxGeometry>
        </mxCell>
        <mxCell id="-uz453hQ5GVuuJa5of4W-10" value="Account Group" style="rounded=1;whiteSpace=wrap;html=1;sketch=1;hachureGap=4;jiggle=2;curveFitting=1;fontFamily=Architects Daughter;fontSource=https%3A%2F%2Ffonts.googleapis.com%2Fcss%3Ffamily%3DArchitects%2BDaughter;fontSize=24;verticalAlign=bottom;fillColor=#fff2cc;gradientColor=#ffd966;strokeColor=#d6b656;" vertex="1" parent="1">
          <mxGeometry x="53.75" y="330" width="382.5" height="140" as="geometry" />
        </mxCell>
        <mxCell id="-uz453hQ5GVuuJa5of4W-84" style="edgeStyle=orthogonalEdgeStyle;curved=1;rounded=0;hachureGap=4;orthogonalLoop=1;jettySize=auto;html=1;entryX=0.5;entryY=0;entryDx=0;entryDy=0;strokeColor=default;strokeWidth=3;align=center;verticalAlign=middle;fontFamily=Architects Daughter;fontSource=https%3A%2F%2Ffonts.googleapis.com%2Fcss%3Ffamily%3DArchitects%2BDaughter;fontSize=11;fontColor=default;labelBackgroundColor=default;endArrow=classic;flowAnimation=1;exitX=0.5;exitY=1;exitDx=0;exitDy=0;" edge="1" parent="1" source="-uz453hQ5GVuuJa5of4W-13" target="-uz453hQ5GVuuJa5of4W-67">
          <mxGeometry relative="1" as="geometry">
            <mxPoint x="251.26666666666688" y="940" as="sourcePoint" />
          </mxGeometry>
        </mxCell>
        <mxCell id="-uz453hQ5GVuuJa5of4W-13" value="Alert Policy&amp;nbsp;&lt;span style=&quot;background-color: initial;&quot;&gt;01&lt;/span&gt;" style="rounded=1;whiteSpace=wrap;html=1;sketch=1;hachureGap=4;jiggle=2;curveFitting=1;fontFamily=Architects Daughter;fontSource=https%3A%2F%2Ffonts.googleapis.com%2Fcss%3Ffamily%3DArchitects%2BDaughter;fontSize=22;fillColor=#d5e8d4;gradientColor=#97d077;strokeColor=#82b366;" vertex="1" parent="1">
          <mxGeometry x="161.25" y="920" width="180" height="30" as="geometry" />
        </mxCell>
        <mxCell id="-uz453hQ5GVuuJa5of4W-83" value="" style="edgeStyle=orthogonalEdgeStyle;curved=1;rounded=0;hachureGap=4;orthogonalLoop=1;jettySize=auto;html=1;strokeColor=default;strokeWidth=3;align=center;verticalAlign=middle;fontFamily=Architects Daughter;fontSource=https%3A%2F%2Ffonts.googleapis.com%2Fcss%3Ffamily%3DArchitects%2BDaughter;fontSize=11;fontColor=default;labelBackgroundColor=default;endArrow=classic;flowAnimation=1;entryX=0.5;entryY=0;entryDx=0;entryDy=0;exitX=0.5;exitY=1;exitDx=0;exitDy=0;" edge="1" parent="1" source="-uz453hQ5GVuuJa5of4W-14" target="-uz453hQ5GVuuJa5of4W-55">
          <mxGeometry relative="1" as="geometry">
            <mxPoint x="455" y="940" as="sourcePoint" />
          </mxGeometry>
        </mxCell>
        <mxCell id="-uz453hQ5GVuuJa5of4W-14" value="Alert Policy&amp;nbsp;&lt;span style=&quot;background-color: initial;&quot;&gt;02&lt;/span&gt;" style="rounded=1;whiteSpace=wrap;html=1;sketch=1;hachureGap=4;jiggle=2;curveFitting=1;fontFamily=Architects Daughter;fontSource=https%3A%2F%2Ffonts.googleapis.com%2Fcss%3Ffamily%3DArchitects%2BDaughter;fontSize=22;fillColor=#d5e8d4;gradientColor=#97d077;strokeColor=#82b366;" vertex="1" parent="1">
          <mxGeometry x="365" y="920" width="180" height="30" as="geometry" />
        </mxCell>
        <mxCell id="-uz453hQ5GVuuJa5of4W-85" style="edgeStyle=orthogonalEdgeStyle;curved=1;rounded=0;hachureGap=4;orthogonalLoop=1;jettySize=auto;html=1;entryX=0.5;entryY=0;entryDx=0;entryDy=0;strokeColor=default;strokeWidth=3;align=center;verticalAlign=middle;fontFamily=Architects Daughter;fontSource=https%3A%2F%2Ffonts.googleapis.com%2Fcss%3Ffamily%3DArchitects%2BDaughter;fontSize=11;fontColor=default;labelBackgroundColor=default;endArrow=classic;flowAnimation=1;exitX=0.5;exitY=1;exitDx=0;exitDy=0;" edge="1" parent="1" source="-uz453hQ5GVuuJa5of4W-15" target="-uz453hQ5GVuuJa5of4W-60">
          <mxGeometry relative="1" as="geometry">
            <mxPoint x="667.5333333333333" y="940" as="sourcePoint" />
          </mxGeometry>
        </mxCell>
        <mxCell id="-uz453hQ5GVuuJa5of4W-15" value="Alert Policy&amp;nbsp;&lt;span style=&quot;background-color: initial;&quot;&gt;03&lt;/span&gt;" style="rounded=1;whiteSpace=wrap;html=1;sketch=1;hachureGap=4;jiggle=2;curveFitting=1;fontFamily=Architects Daughter;fontSource=https%3A%2F%2Ffonts.googleapis.com%2Fcss%3Ffamily%3DArchitects%2BDaughter;fontSize=22;fillColor=#d5e8d4;gradientColor=#97d077;strokeColor=#82b366;" vertex="1" parent="1">
          <mxGeometry x="577.5" y="920" width="180" height="30" as="geometry" />
        </mxCell>
        <mxCell id="-uz453hQ5GVuuJa5of4W-16" value="AWS&lt;div style=&quot;font-size: 16px;&quot;&gt;Accounts&lt;/div&gt;" style="rounded=1;whiteSpace=wrap;html=1;sketch=1;hachureGap=4;jiggle=2;curveFitting=1;fontFamily=Architects Daughter;fontSource=https%3A%2F%2Ffonts.googleapis.com%2Fcss%3Ffamily%3DArchitects%2BDaughter;fontSize=16;fontColor=default;labelBackgroundColor=default;" vertex="1" parent="1">
          <mxGeometry x="76.25" y="350" width="90" height="60" as="geometry" />
        </mxCell>
        <mxCell id="-uz453hQ5GVuuJa5of4W-17" value="AWS&lt;div style=&quot;font-size: 16px;&quot;&gt;Accounts&lt;/div&gt;" style="rounded=1;whiteSpace=wrap;html=1;sketch=1;hachureGap=4;jiggle=2;curveFitting=1;fontFamily=Architects Daughter;fontSource=https%3A%2F%2Ffonts.googleapis.com%2Fcss%3Ffamily%3DArchitects%2BDaughter;fontSize=16;fontColor=default;labelBackgroundColor=default;" vertex="1" parent="1">
          <mxGeometry x="86.25" y="360" width="90" height="60" as="geometry" />
        </mxCell>
        <mxCell id="-uz453hQ5GVuuJa5of4W-18" value="Azure&lt;div&gt;Sub&lt;/div&gt;" style="rounded=1;whiteSpace=wrap;html=1;sketch=1;hachureGap=4;jiggle=2;curveFitting=1;fontFamily=Architects Daughter;fontSource=https%3A%2F%2Ffonts.googleapis.com%2Fcss%3Ffamily%3DArchitects%2BDaughter;fontSize=16;fontColor=default;labelBackgroundColor=default;" vertex="1" parent="1">
          <mxGeometry x="196.25" y="350" width="90" height="60" as="geometry" />
        </mxCell>
        <mxCell id="-uz453hQ5GVuuJa5of4W-19" value="Azure&lt;div&gt;Sub&lt;/div&gt;" style="rounded=1;whiteSpace=wrap;html=1;sketch=1;hachureGap=4;jiggle=2;curveFitting=1;fontFamily=Architects Daughter;fontSource=https%3A%2F%2Ffonts.googleapis.com%2Fcss%3Ffamily%3DArchitects%2BDaughter;fontSize=16;fontColor=default;labelBackgroundColor=default;" vertex="1" parent="1">
          <mxGeometry x="206.25" y="360" width="90" height="60" as="geometry" />
        </mxCell>
        <mxCell id="-uz453hQ5GVuuJa5of4W-20" value="GCP&lt;div&gt;Project&lt;/div&gt;" style="rounded=1;whiteSpace=wrap;html=1;sketch=1;hachureGap=4;jiggle=2;curveFitting=1;fontFamily=Architects Daughter;fontSource=https%3A%2F%2Ffonts.googleapis.com%2Fcss%3Ffamily%3DArchitects%2BDaughter;fontSize=16;fontColor=default;labelBackgroundColor=default;" vertex="1" parent="1">
          <mxGeometry x="316.25" y="350" width="90" height="60" as="geometry" />
        </mxCell>
        <mxCell id="-uz453hQ5GVuuJa5of4W-21" value="GCP&lt;div&gt;Project&lt;/div&gt;" style="rounded=1;whiteSpace=wrap;html=1;sketch=1;hachureGap=4;jiggle=2;curveFitting=1;fontFamily=Architects Daughter;fontSource=https%3A%2F%2Ffonts.googleapis.com%2Fcss%3Ffamily%3DArchitects%2BDaughter;fontSize=16;fontColor=default;labelBackgroundColor=default;" vertex="1" parent="1">
          <mxGeometry x="326.25" y="360" width="90" height="60" as="geometry" />
        </mxCell>
        <mxCell id="-uz453hQ5GVuuJa5of4W-77" style="edgeStyle=orthogonalEdgeStyle;curved=1;rounded=0;hachureGap=4;orthogonalLoop=1;jettySize=auto;html=1;exitX=0.306;exitY=1.007;exitDx=0;exitDy=0;entryX=0.5;entryY=0;entryDx=0;entryDy=0;strokeColor=default;strokeWidth=3;align=center;verticalAlign=middle;fontFamily=Architects Daughter;fontSource=https%3A%2F%2Ffonts.googleapis.com%2Fcss%3Ffamily%3DArchitects%2BDaughter;fontSize=11;fontColor=default;labelBackgroundColor=default;endArrow=classic;flowAnimation=1;exitPerimeter=0;" edge="1" parent="1" source="-uz453hQ5GVuuJa5of4W-22" target="-uz453hQ5GVuuJa5of4W-74">
          <mxGeometry relative="1" as="geometry" />
        </mxCell>
        <mxCell id="-uz453hQ5GVuuJa5of4W-78" style="edgeStyle=orthogonalEdgeStyle;curved=1;rounded=0;hachureGap=4;orthogonalLoop=1;jettySize=auto;html=1;entryX=0.5;entryY=0;entryDx=0;entryDy=0;strokeColor=default;strokeWidth=3;align=center;verticalAlign=middle;fontFamily=Architects Daughter;fontSource=https%3A%2F%2Ffonts.googleapis.com%2Fcss%3Ffamily%3DArchitects%2BDaughter;fontSize=11;fontColor=default;labelBackgroundColor=default;endArrow=classic;flowAnimation=1;" edge="1" parent="1" source="-uz453hQ5GVuuJa5of4W-22" target="-uz453hQ5GVuuJa5of4W-75">
          <mxGeometry relative="1" as="geometry" />
        </mxCell>
        <mxCell id="-uz453hQ5GVuuJa5of4W-22" value="Governance Policies" style="rounded=1;whiteSpace=wrap;html=1;sketch=1;hachureGap=4;jiggle=2;curveFitting=1;fontFamily=Architects Daughter;fontSource=https%3A%2F%2Ffonts.googleapis.com%2Fcss%3Ffamily%3DArchitects%2BDaughter;fontSize=24;verticalAlign=bottom;arcSize=10;fillColor=#ffcd28;gradientColor=#ffa500;strokeColor=#d79b00;labelBackgroundColor=none;" vertex="1" parent="1">
          <mxGeometry x="53.75" y="560" width="766.25" height="250" as="geometry" />
        </mxCell>
        <mxCell id="-uz453hQ5GVuuJa5of4W-23" value="Attack Path" style="rounded=1;whiteSpace=wrap;html=1;sketch=1;hachureGap=4;jiggle=2;curveFitting=1;fontFamily=Architects Daughter;fontSource=https%3A%2F%2Ffonts.googleapis.com%2Fcss%3Ffamily%3DArchitects%2BDaughter;fontSize=18;fontColor=default;labelBackgroundColor=default;" vertex="1" parent="1">
          <mxGeometry x="76.25" y="610" width="120" height="30" as="geometry" />
        </mxCell>
        <mxCell id="-uz453hQ5GVuuJa5of4W-24" value="Misconfiguration" style="rounded=1;whiteSpace=wrap;html=1;sketch=1;hachureGap=4;jiggle=2;curveFitting=1;fontFamily=Architects Daughter;fontSource=https%3A%2F%2Ffonts.googleapis.com%2Fcss%3Ffamily%3DArchitects%2BDaughter;fontSize=18;fontColor=default;labelBackgroundColor=default;" vertex="1" parent="1">
          <mxGeometry x="210" y="610" width="190" height="30" as="geometry" />
        </mxCell>
        <mxCell id="-uz453hQ5GVuuJa5of4W-25" value="Exposure" style="rounded=1;whiteSpace=wrap;html=1;sketch=1;hachureGap=4;jiggle=2;curveFitting=1;fontFamily=Architects Daughter;fontSource=https%3A%2F%2Ffonts.googleapis.com%2Fcss%3Ffamily%3DArchitects%2BDaughter;fontSize=18;fontColor=default;labelBackgroundColor=default;" vertex="1" parent="1">
          <mxGeometry x="76.25" y="650" width="103.75" height="30" as="geometry" />
        </mxCell>
        <mxCell id="-uz453hQ5GVuuJa5of4W-26" value="IAM" style="rounded=1;whiteSpace=wrap;html=1;sketch=1;hachureGap=4;jiggle=2;curveFitting=1;fontFamily=Architects Daughter;fontSource=https%3A%2F%2Ffonts.googleapis.com%2Fcss%3Ffamily%3DArchitects%2BDaughter;fontSize=18;fontColor=default;labelBackgroundColor=default;" vertex="1" parent="1">
          <mxGeometry x="199.38" y="650" width="70.62" height="30" as="geometry" />
        </mxCell>
        <mxCell id="-uz453hQ5GVuuJa5of4W-27" value="Anomalies" style="rounded=1;whiteSpace=wrap;html=1;sketch=1;hachureGap=4;jiggle=2;curveFitting=1;fontFamily=Architects Daughter;fontSource=https%3A%2F%2Ffonts.googleapis.com%2Fcss%3Ffamily%3DArchitects%2BDaughter;fontSize=18;fontColor=default;labelBackgroundColor=default;" vertex="1" parent="1">
          <mxGeometry x="286.25" y="650" width="113.75" height="30" as="geometry" />
        </mxCell>
        <mxCell id="-uz453hQ5GVuuJa5of4W-28" value="Data" style="rounded=1;whiteSpace=wrap;html=1;sketch=1;hachureGap=4;jiggle=2;curveFitting=1;fontFamily=Architects Daughter;fontSource=https%3A%2F%2Ffonts.googleapis.com%2Fcss%3Ffamily%3DArchitects%2BDaughter;fontSize=18;fontColor=default;labelBackgroundColor=default;" vertex="1" parent="1">
          <mxGeometry x="76.25" y="690" width="83.75" height="30" as="geometry" />
        </mxCell>
        <mxCell id="-uz453hQ5GVuuJa5of4W-29" value="Grayware" style="rounded=1;whiteSpace=wrap;html=1;sketch=1;hachureGap=4;jiggle=2;curveFitting=1;fontFamily=Architects Daughter;fontSource=https%3A%2F%2Ffonts.googleapis.com%2Fcss%3Ffamily%3DArchitects%2BDaughter;fontSize=18;fontColor=default;labelBackgroundColor=default;" vertex="1" parent="1">
          <mxGeometry x="176.25" y="690" width="133.75" height="30" as="geometry" />
        </mxCell>
        <mxCell id="-uz453hQ5GVuuJa5of4W-30" value="Audit Event" style="rounded=1;whiteSpace=wrap;html=1;sketch=1;hachureGap=4;jiggle=2;curveFitting=1;fontFamily=Architects Daughter;fontSource=https%3A%2F%2Ffonts.googleapis.com%2Fcss%3Ffamily%3DArchitects%2BDaughter;fontSize=18;fontColor=default;labelBackgroundColor=default;" vertex="1" parent="1">
          <mxGeometry x="317.5" y="690" width="133.75" height="30" as="geometry" />
        </mxCell>
        <mxCell id="-uz453hQ5GVuuJa5of4W-31" value="API" style="rounded=1;whiteSpace=wrap;html=1;sketch=1;hachureGap=4;jiggle=2;curveFitting=1;fontFamily=Architects Daughter;fontSource=https%3A%2F%2Ffonts.googleapis.com%2Fcss%3Ffamily%3DArchitects%2BDaughter;fontSize=18;fontColor=default;labelBackgroundColor=default;" vertex="1" parent="1">
          <mxGeometry x="416.25" y="610" width="70.62" height="30" as="geometry" />
        </mxCell>
        <mxCell id="-uz453hQ5GVuuJa5of4W-32" value="Workload Incidents" style="rounded=1;whiteSpace=wrap;html=1;sketch=1;hachureGap=4;jiggle=2;curveFitting=1;fontFamily=Architects Daughter;fontSource=https%3A%2F%2Ffonts.googleapis.com%2Fcss%3Ffamily%3DArchitects%2BDaughter;fontSize=18;fontColor=default;labelBackgroundColor=default;" vertex="1" parent="1">
          <mxGeometry x="416.25" y="650" width="183.75" height="30" as="geometry" />
        </mxCell>
        <mxCell id="-uz453hQ5GVuuJa5of4W-33" value="Vulnerability" style="rounded=1;whiteSpace=wrap;html=1;sketch=1;hachureGap=4;jiggle=2;curveFitting=1;fontFamily=Architects Daughter;fontSource=https%3A%2F%2Ffonts.googleapis.com%2Fcss%3Ffamily%3DArchitects%2BDaughter;fontSize=18;fontColor=default;labelBackgroundColor=default;" vertex="1" parent="1">
          <mxGeometry x="466.25" y="690" width="133.75" height="30" as="geometry" />
        </mxCell>
        <mxCell id="-uz453hQ5GVuuJa5of4W-34" value="Data" style="rounded=1;whiteSpace=wrap;html=1;sketch=1;hachureGap=4;jiggle=2;curveFitting=1;fontFamily=Architects Daughter;fontSource=https%3A%2F%2Ffonts.googleapis.com%2Fcss%3Ffamily%3DArchitects%2BDaughter;fontSize=18;fontColor=default;labelBackgroundColor=default;" vertex="1" parent="1">
          <mxGeometry x="497.82" y="610" width="102.18" height="30" as="geometry" />
        </mxCell>
        <mxCell id="-uz453hQ5GVuuJa5of4W-35" value="Policy Type" style="text;html=1;align=center;verticalAlign=middle;whiteSpace=wrap;rounded=0;fontFamily=Architects Daughter;fontSource=https%3A%2F%2Ffonts.googleapis.com%2Fcss%3Ffamily%3DArchitects%2BDaughter;fontSize=24;fontColor=default;labelBackgroundColor=default;fontStyle=5" vertex="1" parent="1">
          <mxGeometry x="76.25" y="570" width="143.75" height="30" as="geometry" />
        </mxCell>
        <mxCell id="-uz453hQ5GVuuJa5of4W-36" value="Policy Severity" style="text;html=1;align=center;verticalAlign=middle;whiteSpace=wrap;rounded=0;fontFamily=Architects Daughter;fontSource=https%3A%2F%2Ffonts.googleapis.com%2Fcss%3Ffamily%3DArchitects%2BDaughter;fontSize=24;fontColor=default;labelBackgroundColor=default;fontStyle=5" vertex="1" parent="1">
          <mxGeometry x="623.75" y="570" width="183.75" height="30" as="geometry" />
        </mxCell>
        <mxCell id="-uz453hQ5GVuuJa5of4W-37" value="Critical" style="rounded=1;whiteSpace=wrap;html=1;sketch=1;hachureGap=4;jiggle=2;curveFitting=1;fontFamily=Architects Daughter;fontSource=https%3A%2F%2Ffonts.googleapis.com%2Fcss%3Ffamily%3DArchitects%2BDaughter;fontSize=18;fontColor=default;labelBackgroundColor=default;" vertex="1" parent="1">
          <mxGeometry x="673.75" y="610" width="83.75" height="30" as="geometry" />
        </mxCell>
        <mxCell id="-uz453hQ5GVuuJa5of4W-38" value="High" style="rounded=1;whiteSpace=wrap;html=1;sketch=1;hachureGap=4;jiggle=2;curveFitting=1;fontFamily=Architects Daughter;fontSource=https%3A%2F%2Ffonts.googleapis.com%2Fcss%3Ffamily%3DArchitects%2BDaughter;fontSize=18;fontColor=default;labelBackgroundColor=default;" vertex="1" parent="1">
          <mxGeometry x="673.75" y="650" width="83.75" height="30" as="geometry" />
        </mxCell>
        <mxCell id="-uz453hQ5GVuuJa5of4W-39" value="Medium" style="rounded=1;whiteSpace=wrap;html=1;sketch=1;hachureGap=4;jiggle=2;curveFitting=1;fontFamily=Architects Daughter;fontSource=https%3A%2F%2Ffonts.googleapis.com%2Fcss%3Ffamily%3DArchitects%2BDaughter;fontSize=18;fontColor=default;labelBackgroundColor=default;" vertex="1" parent="1">
          <mxGeometry x="673.75" y="690" width="83.75" height="30" as="geometry" />
        </mxCell>
        <mxCell id="-uz453hQ5GVuuJa5of4W-40" value="Low" style="rounded=1;whiteSpace=wrap;html=1;sketch=1;hachureGap=4;jiggle=2;curveFitting=1;fontFamily=Architects Daughter;fontSource=https%3A%2F%2Ffonts.googleapis.com%2Fcss%3Ffamily%3DArchitects%2BDaughter;fontSize=18;fontColor=default;labelBackgroundColor=default;" vertex="1" parent="1">
          <mxGeometry x="673.75" y="730" width="83.75" height="30" as="geometry" />
        </mxCell>
        <mxCell id="-uz453hQ5GVuuJa5of4W-41" value="Information" style="rounded=1;whiteSpace=wrap;html=1;sketch=1;hachureGap=4;jiggle=2;curveFitting=1;fontFamily=Architects Daughter;fontSource=https%3A%2F%2Ffonts.googleapis.com%2Fcss%3Ffamily%3DArchitects%2BDaughter;fontSize=18;fontColor=default;labelBackgroundColor=default;" vertex="1" parent="1">
          <mxGeometry x="659.69" y="770" width="123.13" height="30" as="geometry" />
        </mxCell>
        <mxCell id="-uz453hQ5GVuuJa5of4W-43" value="Compliance Standards Samples" style="swimlane;fontStyle=0;childLayout=stackLayout;horizontal=1;startSize=30;horizontalStack=0;resizeParent=1;resizeParentMax=0;resizeLast=0;collapsible=1;marginBottom=0;whiteSpace=wrap;html=1;sketch=1;hachureGap=4;jiggle=2;curveFitting=1;fontFamily=Architects Daughter;fontSource=https%3A%2F%2Ffonts.googleapis.com%2Fcss%3Ffamily%3DArchitects%2BDaughter;fontSize=20;labelBackgroundColor=none;fillColor=#dae8fc;gradientColor=#7ea6e0;strokeColor=#6c8ebf;" vertex="1" parent="1">
          <mxGeometry x="486.87" y="341" width="327.5" height="200" as="geometry" />
        </mxCell>
        <mxCell id="-uz453hQ5GVuuJa5of4W-44" value="ISO27001" style="text;strokeColor=none;fillColor=none;align=left;verticalAlign=middle;spacingLeft=4;spacingRight=4;overflow=hidden;points=[[0,0.5],[1,0.5]];portConstraint=eastwest;rotatable=0;whiteSpace=wrap;html=1;fontFamily=Architects Daughter;fontSource=https%3A%2F%2Ffonts.googleapis.com%2Fcss%3Ffamily%3DArchitects%2BDaughter;fontSize=20;fontColor=default;labelBackgroundColor=default;" vertex="1" parent="-uz453hQ5GVuuJa5of4W-43">
          <mxGeometry y="30" width="327.5" height="30" as="geometry" />
        </mxCell>
        <mxCell id="-uz453hQ5GVuuJa5of4W-45" value="CIS" style="text;strokeColor=none;fillColor=none;align=left;verticalAlign=middle;spacingLeft=4;spacingRight=4;overflow=hidden;points=[[0,0.5],[1,0.5]];portConstraint=eastwest;rotatable=0;whiteSpace=wrap;html=1;fontFamily=Architects Daughter;fontSource=https%3A%2F%2Ffonts.googleapis.com%2Fcss%3Ffamily%3DArchitects%2BDaughter;fontSize=20;fontColor=default;labelBackgroundColor=default;" vertex="1" parent="-uz453hQ5GVuuJa5of4W-43">
          <mxGeometry y="60" width="327.5" height="30" as="geometry" />
        </mxCell>
        <mxCell id="-uz453hQ5GVuuJa5of4W-47" value="Singapore MAS TRM" style="text;strokeColor=none;fillColor=none;align=left;verticalAlign=middle;spacingLeft=4;spacingRight=4;overflow=hidden;points=[[0,0.5],[1,0.5]];portConstraint=eastwest;rotatable=0;whiteSpace=wrap;html=1;fontFamily=Architects Daughter;fontSource=https%3A%2F%2Ffonts.googleapis.com%2Fcss%3Ffamily%3DArchitects%2BDaughter;fontSize=20;fontColor=default;labelBackgroundColor=default;" vertex="1" parent="-uz453hQ5GVuuJa5of4W-43">
          <mxGeometry y="90" width="327.5" height="30" as="geometry" />
        </mxCell>
        <mxCell id="-uz453hQ5GVuuJa5of4W-46" value="AWS Well Architected Framework" style="text;strokeColor=none;fillColor=none;align=left;verticalAlign=middle;spacingLeft=4;spacingRight=4;overflow=hidden;points=[[0,0.5],[1,0.5]];portConstraint=eastwest;rotatable=0;whiteSpace=wrap;html=1;fontFamily=Architects Daughter;fontSource=https%3A%2F%2Ffonts.googleapis.com%2Fcss%3Ffamily%3DArchitects%2BDaughter;fontSize=18;fontColor=default;labelBackgroundColor=default;" vertex="1" parent="-uz453hQ5GVuuJa5of4W-43">
          <mxGeometry y="120" width="327.5" height="40" as="geometry" />
        </mxCell>
        <mxCell id="-uz453hQ5GVuuJa5of4W-48" value="Custom Compliance Standard" style="text;strokeColor=none;fillColor=none;align=left;verticalAlign=middle;spacingLeft=4;spacingRight=4;overflow=hidden;points=[[0,0.5],[1,0.5]];portConstraint=eastwest;rotatable=0;whiteSpace=wrap;html=1;fontFamily=Architects Daughter;fontSource=https%3A%2F%2Ffonts.googleapis.com%2Fcss%3Ffamily%3DArchitects%2BDaughter;fontSize=20;fontColor=default;labelBackgroundColor=default;" vertex="1" parent="-uz453hQ5GVuuJa5of4W-43">
          <mxGeometry y="160" width="327.5" height="40" as="geometry" />
        </mxCell>
        <mxCell id="-uz453hQ5GVuuJa5of4W-49" style="edgeStyle=orthogonalEdgeStyle;curved=1;rounded=0;hachureGap=4;orthogonalLoop=1;jettySize=auto;html=1;entryX=0;entryY=0.5;entryDx=0;entryDy=0;strokeColor=default;strokeWidth=2;align=center;verticalAlign=middle;fontFamily=Architects Daughter;fontSource=https%3A%2F%2Ffonts.googleapis.com%2Fcss%3Ffamily%3DArchitects%2BDaughter;fontSize=11;fontColor=default;labelBackgroundColor=default;endArrow=classic;flowAnimation=1;dashed=1;dashPattern=1 2;exitX=0.488;exitY=-0.025;exitDx=0;exitDy=0;exitPerimeter=0;" edge="1" parent="1" source="-uz453hQ5GVuuJa5of4W-22" target="-uz453hQ5GVuuJa5of4W-46">
          <mxGeometry relative="1" as="geometry">
            <mxPoint x="450" y="550" as="sourcePoint" />
          </mxGeometry>
        </mxCell>
        <mxCell id="-uz453hQ5GVuuJa5of4W-51" value="Amazon SQS" style="rounded=1;whiteSpace=wrap;html=1;sketch=1;hachureGap=4;jiggle=2;curveFitting=1;fontFamily=Architects Daughter;fontSource=https%3A%2F%2Ffonts.googleapis.com%2Fcss%3Ffamily%3DArchitects%2BDaughter;fontSize=18;fontColor=default;labelBackgroundColor=default;" vertex="1" parent="1">
          <mxGeometry x="255.63" y="1040" width="120" height="30" as="geometry" />
        </mxCell>
        <mxCell id="-uz453hQ5GVuuJa5of4W-52" value="Outbound" style="text;html=1;align=center;verticalAlign=middle;whiteSpace=wrap;rounded=0;fontFamily=Architects Daughter;fontSource=https%3A%2F%2Ffonts.googleapis.com%2Fcss%3Ffamily%3DArchitects%2BDaughter;fontSize=24;fontColor=default;labelBackgroundColor=default;fontStyle=5" vertex="1" parent="1">
          <mxGeometry x="251.88" y="1000" width="123.75" height="30" as="geometry" />
        </mxCell>
        <mxCell id="-uz453hQ5GVuuJa5of4W-53" value="Inbound" style="text;html=1;align=center;verticalAlign=middle;whiteSpace=wrap;rounded=0;fontFamily=Architects Daughter;fontSource=https%3A%2F%2Ffonts.googleapis.com%2Fcss%3Ffamily%3DArchitects%2BDaughter;fontSize=24;fontColor=default;labelBackgroundColor=default;fontStyle=5" vertex="1" parent="1">
          <mxGeometry x="251.88" y="1200" width="103.75" height="30" as="geometry" />
        </mxCell>
        <mxCell id="-uz453hQ5GVuuJa5of4W-54" value="Amazon S3" style="rounded=1;whiteSpace=wrap;html=1;sketch=1;hachureGap=4;jiggle=2;curveFitting=1;fontFamily=Architects Daughter;fontSource=https%3A%2F%2Ffonts.googleapis.com%2Fcss%3Ffamily%3DArchitects%2BDaughter;fontSize=18;fontColor=default;labelBackgroundColor=default;" vertex="1" parent="1">
          <mxGeometry x="391.88" y="1040" width="120" height="30" as="geometry" />
        </mxCell>
        <mxCell id="-uz453hQ5GVuuJa5of4W-55" value="&lt;div&gt;Amazon Security Lake&lt;/div&gt;" style="rounded=1;whiteSpace=wrap;html=1;sketch=1;hachureGap=4;jiggle=2;curveFitting=1;fontFamily=Architects Daughter;fontSource=https%3A%2F%2Ffonts.googleapis.com%2Fcss%3Ffamily%3DArchitects%2BDaughter;fontSize=18;fontColor=default;labelBackgroundColor=default;" vertex="1" parent="1">
          <mxGeometry x="526.88" y="1040" width="198.75" height="30" as="geometry" />
        </mxCell>
        <mxCell id="-uz453hQ5GVuuJa5of4W-56" value="&lt;div&gt;AWS Security Hub&lt;/div&gt;" style="rounded=1;whiteSpace=wrap;html=1;sketch=1;hachureGap=4;jiggle=2;curveFitting=1;fontFamily=Architects Daughter;fontSource=https%3A%2F%2Ffonts.googleapis.com%2Fcss%3Ffamily%3DArchitects%2BDaughter;fontSize=18;fontColor=default;labelBackgroundColor=default;" vertex="1" parent="1">
          <mxGeometry x="255.63" y="1080" width="198.75" height="30" as="geometry" />
        </mxCell>
        <mxCell id="-uz453hQ5GVuuJa5of4W-57" value="&lt;div&gt;Azure Service Bus Queue&lt;/div&gt;" style="rounded=1;whiteSpace=wrap;html=1;sketch=1;hachureGap=4;jiggle=2;curveFitting=1;fontFamily=Architects Daughter;fontSource=https%3A%2F%2Ffonts.googleapis.com%2Fcss%3Ffamily%3DArchitects%2BDaughter;fontSize=18;fontColor=default;labelBackgroundColor=default;" vertex="1" parent="1">
          <mxGeometry x="465.63" y="1080" width="257.5" height="30" as="geometry" />
        </mxCell>
        <mxCell id="-uz453hQ5GVuuJa5of4W-58" value="Cortex XSOAR" style="rounded=1;whiteSpace=wrap;html=1;sketch=1;hachureGap=4;jiggle=2;curveFitting=1;fontFamily=Architects Daughter;fontSource=https%3A%2F%2Ffonts.googleapis.com%2Fcss%3Ffamily%3DArchitects%2BDaughter;fontSize=18;fontColor=default;labelBackgroundColor=default;" vertex="1" parent="1">
          <mxGeometry x="255.63" y="1120" width="146.25" height="30" as="geometry" />
        </mxCell>
        <mxCell id="-uz453hQ5GVuuJa5of4W-59" value="Google CSCC" style="rounded=1;whiteSpace=wrap;html=1;sketch=1;hachureGap=4;jiggle=2;curveFitting=1;fontFamily=Architects Daughter;fontSource=https%3A%2F%2Ffonts.googleapis.com%2Fcss%3Ffamily%3DArchitects%2BDaughter;fontSize=18;fontColor=default;labelBackgroundColor=default;" vertex="1" parent="1">
          <mxGeometry x="416.88" y="1120" width="135" height="30" as="geometry" />
        </mxCell>
        <mxCell id="-uz453hQ5GVuuJa5of4W-60" value="JIRA" style="rounded=1;whiteSpace=wrap;html=1;sketch=1;hachureGap=4;jiggle=2;curveFitting=1;fontFamily=Architects Daughter;fontSource=https%3A%2F%2Ffonts.googleapis.com%2Fcss%3Ffamily%3DArchitects%2BDaughter;fontSize=18;fontColor=default;labelBackgroundColor=default;" vertex="1" parent="1">
          <mxGeometry x="738.75" y="1040" width="58.75" height="30" as="geometry" />
        </mxCell>
        <mxCell id="-uz453hQ5GVuuJa5of4W-61" value="Microsoft Teams" style="rounded=1;whiteSpace=wrap;html=1;sketch=1;hachureGap=4;jiggle=2;curveFitting=1;fontFamily=Architects Daughter;fontSource=https%3A%2F%2Ffonts.googleapis.com%2Fcss%3Ffamily%3DArchitects%2BDaughter;fontSize=18;fontColor=default;labelBackgroundColor=default;" vertex="1" parent="1">
          <mxGeometry x="568.75" y="1120" width="170" height="30" as="geometry" />
        </mxCell>
        <mxCell id="-uz453hQ5GVuuJa5of4W-62" value="Splunk" style="rounded=1;whiteSpace=wrap;html=1;sketch=1;hachureGap=4;jiggle=2;curveFitting=1;fontFamily=Architects Daughter;fontSource=https%3A%2F%2Ffonts.googleapis.com%2Fcss%3Ffamily%3DArchitects%2BDaughter;fontSize=18;fontColor=default;labelBackgroundColor=default;" vertex="1" parent="1">
          <mxGeometry x="731.88" y="1080" width="86.25" height="30" as="geometry" />
        </mxCell>
        <mxCell id="-uz453hQ5GVuuJa5of4W-63" value="Slack" style="rounded=1;whiteSpace=wrap;html=1;sketch=1;hachureGap=4;jiggle=2;curveFitting=1;fontFamily=Architects Daughter;fontSource=https%3A%2F%2Ffonts.googleapis.com%2Fcss%3Ffamily%3DArchitects%2BDaughter;fontSize=18;fontColor=default;labelBackgroundColor=default;" vertex="1" parent="1">
          <mxGeometry x="751.88" y="1120" width="48.75" height="30" as="geometry" />
        </mxCell>
        <mxCell id="-uz453hQ5GVuuJa5of4W-64" value="ServiceNow" style="rounded=1;whiteSpace=wrap;html=1;sketch=1;hachureGap=4;jiggle=2;curveFitting=1;fontFamily=Architects Daughter;fontSource=https%3A%2F%2Ffonts.googleapis.com%2Fcss%3Ffamily%3DArchitects%2BDaughter;fontSize=18;fontColor=default;labelBackgroundColor=default;" vertex="1" parent="1">
          <mxGeometry x="490.63" y="1160" width="120" height="30" as="geometry" />
        </mxCell>
        <mxCell id="-uz453hQ5GVuuJa5of4W-65" value="Pager Duty" style="rounded=1;whiteSpace=wrap;html=1;sketch=1;hachureGap=4;jiggle=2;curveFitting=1;fontFamily=Architects Daughter;fontSource=https%3A%2F%2Ffonts.googleapis.com%2Fcss%3Ffamily%3DArchitects%2BDaughter;fontSize=18;fontColor=default;labelBackgroundColor=default;" vertex="1" parent="1">
          <mxGeometry x="253.76" y="1160" width="120" height="30" as="geometry" />
        </mxCell>
        <mxCell id="-uz453hQ5GVuuJa5of4W-66" value="Webhook" style="rounded=1;whiteSpace=wrap;html=1;sketch=1;hachureGap=4;jiggle=2;curveFitting=1;fontFamily=Architects Daughter;fontSource=https%3A%2F%2Ffonts.googleapis.com%2Fcss%3Ffamily%3DArchitects%2BDaughter;fontSize=18;fontColor=default;labelBackgroundColor=default;" vertex="1" parent="1">
          <mxGeometry x="384.38" y="1160" width="96.25" height="30" as="geometry" />
        </mxCell>
        <mxCell id="-uz453hQ5GVuuJa5of4W-67" value="Email&lt;div&gt;Notification&lt;br&gt;&lt;div&gt;(Default)&lt;/div&gt;&lt;/div&gt;" style="rounded=1;whiteSpace=wrap;html=1;sketch=1;hachureGap=4;jiggle=2;curveFitting=1;fontFamily=Architects Daughter;fontSource=https%3A%2F%2Ffonts.googleapis.com%2Fcss%3Ffamily%3DArchitects%2BDaughter;fontSize=18;labelBackgroundColor=none;fillColor=#f5f5f5;gradientColor=#b3b3b3;strokeColor=#666666;" vertex="1" parent="1">
          <mxGeometry x="42.50000000000001" y="1030" width="133.75" height="80" as="geometry" />
        </mxCell>
        <mxCell id="-uz453hQ5GVuuJa5of4W-68" value="Okta" style="rounded=1;whiteSpace=wrap;html=1;sketch=1;hachureGap=4;jiggle=2;curveFitting=1;fontFamily=Architects Daughter;fontSource=https%3A%2F%2Ffonts.googleapis.com%2Fcss%3Ffamily%3DArchitects%2BDaughter;fontSize=18;fontColor=default;labelBackgroundColor=default;" vertex="1" parent="1">
          <mxGeometry x="255.63" y="1240" width="120" height="30" as="geometry" />
        </mxCell>
        <mxCell id="-uz453hQ5GVuuJa5of4W-69" value="Qualys" style="rounded=1;whiteSpace=wrap;html=1;sketch=1;hachureGap=4;jiggle=2;curveFitting=1;fontFamily=Architects Daughter;fontSource=https%3A%2F%2Ffonts.googleapis.com%2Fcss%3Ffamily%3DArchitects%2BDaughter;fontSize=18;fontColor=default;labelBackgroundColor=default;" vertex="1" parent="1">
          <mxGeometry x="391.88" y="1240" width="120" height="30" as="geometry" />
        </mxCell>
        <mxCell id="-uz453hQ5GVuuJa5of4W-70" value="Tenable" style="rounded=1;whiteSpace=wrap;html=1;sketch=1;hachureGap=4;jiggle=2;curveFitting=1;fontFamily=Architects Daughter;fontSource=https%3A%2F%2Ffonts.googleapis.com%2Fcss%3Ffamily%3DArchitects%2BDaughter;fontSize=18;fontColor=default;labelBackgroundColor=default;" vertex="1" parent="1">
          <mxGeometry x="526.88" y="1240" width="115" height="30" as="geometry" />
        </mxCell>
        <mxCell id="-uz453hQ5GVuuJa5of4W-71" value="Resource FIlters" style="rounded=1;whiteSpace=wrap;html=1;sketch=1;hachureGap=4;jiggle=2;curveFitting=1;fontFamily=Architects Daughter;fontSource=https%3A%2F%2Ffonts.googleapis.com%2Fcss%3Ffamily%3DArchitects%2BDaughter;fontSize=20;labelBackgroundColor=none;fillColor=#d5e8d4;gradientColor=#97d077;strokeColor=#82b366;" vertex="1" parent="1">
          <mxGeometry x="157.81" y="890" width="185" height="30" as="geometry" />
        </mxCell>
        <mxCell id="-uz453hQ5GVuuJa5of4W-72" value="Resource FIlters" style="rounded=1;whiteSpace=wrap;html=1;sketch=1;hachureGap=4;jiggle=2;curveFitting=1;fontFamily=Architects Daughter;fontSource=https%3A%2F%2Ffonts.googleapis.com%2Fcss%3Ffamily%3DArchitects%2BDaughter;fontSize=20;labelBackgroundColor=none;fillColor=#d5e8d4;gradientColor=#97d077;strokeColor=#82b366;" vertex="1" parent="1">
          <mxGeometry x="367.81" y="890" width="175" height="30" as="geometry" />
        </mxCell>
        <mxCell id="-uz453hQ5GVuuJa5of4W-73" value="Resource FIlters" style="rounded=1;whiteSpace=wrap;html=1;sketch=1;hachureGap=4;jiggle=2;curveFitting=1;fontFamily=Architects Daughter;fontSource=https%3A%2F%2Ffonts.googleapis.com%2Fcss%3Ffamily%3DArchitects%2BDaughter;fontSize=20;labelBackgroundColor=none;fillColor=#d5e8d4;gradientColor=#97d077;strokeColor=#82b366;" vertex="1" parent="1">
          <mxGeometry x="580.3100000000001" y="890" width="175" height="30" as="geometry" />
        </mxCell>
        <mxCell id="-uz453hQ5GVuuJa5of4W-74" value="Policy Filters" style="rounded=1;whiteSpace=wrap;html=1;sketch=1;hachureGap=4;jiggle=2;curveFitting=1;fontFamily=Architects Daughter;fontSource=https%3A%2F%2Ffonts.googleapis.com%2Fcss%3Ffamily%3DArchitects%2BDaughter;fontSize=20;labelBackgroundColor=none;fillColor=#d5e8d4;gradientColor=#97d077;strokeColor=#82b366;" vertex="1" parent="1">
          <mxGeometry x="156.56" y="860" width="185" height="30" as="geometry" />
        </mxCell>
        <mxCell id="-uz453hQ5GVuuJa5of4W-75" value="Policy Filters" style="rounded=1;whiteSpace=wrap;html=1;sketch=1;hachureGap=4;jiggle=2;curveFitting=1;fontFamily=Architects Daughter;fontSource=https%3A%2F%2Ffonts.googleapis.com%2Fcss%3Ffamily%3DArchitects%2BDaughter;fontSize=20;labelBackgroundColor=none;fillColor=#d5e8d4;gradientColor=#97d077;strokeColor=#82b366;" vertex="1" parent="1">
          <mxGeometry x="366.56" y="860" width="175" height="30" as="geometry" />
        </mxCell>
        <mxCell id="-uz453hQ5GVuuJa5of4W-76" value="Policy Filters" style="rounded=1;whiteSpace=wrap;html=1;sketch=1;hachureGap=4;jiggle=2;curveFitting=1;fontFamily=Architects Daughter;fontSource=https%3A%2F%2Ffonts.googleapis.com%2Fcss%3Ffamily%3DArchitects%2BDaughter;fontSize=20;labelBackgroundColor=none;fillColor=#d5e8d4;gradientColor=#97d077;strokeColor=#82b366;" vertex="1" parent="1">
          <mxGeometry x="579.0600000000001" y="860" width="175" height="30" as="geometry" />
        </mxCell>
        <mxCell id="-uz453hQ5GVuuJa5of4W-79" style="edgeStyle=orthogonalEdgeStyle;curved=1;rounded=0;hachureGap=4;orthogonalLoop=1;jettySize=auto;html=1;entryX=0.5;entryY=0;entryDx=0;entryDy=0;strokeColor=default;strokeWidth=3;align=center;verticalAlign=middle;fontFamily=Architects Daughter;fontSource=https%3A%2F%2Ffonts.googleapis.com%2Fcss%3Ffamily%3DArchitects%2BDaughter;fontSize=11;fontColor=default;labelBackgroundColor=default;endArrow=classic;flowAnimation=1;exitX=0.75;exitY=1;exitDx=0;exitDy=0;" edge="1" parent="1" source="-uz453hQ5GVuuJa5of4W-22" target="-uz453hQ5GVuuJa5of4W-76">
          <mxGeometry relative="1" as="geometry" />
        </mxCell>
      </root>
    </mxGraphModel>
  </diagram>
</mxfile>
